<svg xmlns="http://www.w3.org/2000/svg" viewBox="0 0 410 404"><defs><linearGradient x1="6.574%" y1="3.048%" x2="78.611%" y2="78.552%" id="a"><stop stop-color="#41D1FF" offset="0%"/><stop stop-color="#BD34FE" offset="100%"/></linearGradient><linearGradient x1="43.376%" y1="2.242%" x2="50.316%" y2="89.03%" id="b"><stop stop-color="#FFEA83" offset="0%"/><stop stop-color="#FFDD35" offset="8.333%"/><stop stop-color="#FFA800" offset="100%"/></linearGradient></defs><path d="m399.641 59.525-183.01 327.5c-7.068 12.654-25.216 12.665-32.299.02L10.36 59.546c-7.485-12.987 2.932-28.897 17.14-26.485l177.106 30.238a18.233 18.233 0 0 0 6.287-.002l171.756-30.196c14.184-2.494 24.635 12.332 17.16 25.307Z" fill="url(#a)"/><path d="m292.965 1.574-94.842 17.978a9.077 9.077 0 0 0-7.273 8.874l-4.584 200.56c-.14 6.124 5.535 10.832 11.546 9.436l26.006-6.036c6.365-1.476 12.136 3.872 11.122 10.315l-7.731 48.772c-1.047 6.607 4.727 12.345 11.255 10.772l16.062-3.845c6.52-1.56 12.303 3.661 11.3 10.275l-12.316 79.084c-1.625 10.428 12.522 15.523 17.35 6.149l3.023-5.86 76.772-270.618c1.86-6.556-3.728-12.72-10.48-11.383l-26.83 5.25c-6.517 1.276-12.31-4.16-11.222-10.712l17.282-107.758c1.088-6.79-4.8-12.5-11.437-11.217Z" fill="url(#b)"/></svg>
